<svg id="visual" viewBox="0 0 900 600" width="900" height="600" xmlns="http://www.w3.org/2000/svg" xmlns:xlink="http://www.w3.org/1999/xlink" version="1.1"><rect x="0" y="0" width="900" height="600" fill="#140021"></rect><path d="M721 0L411 0L411 67L434 67L434 133L429 133L429 200L451 200L451 267L729 267L729 333L558 333L558 400L564 400L564 467L581 467L581 533L484 533L484 600L0 600L0 533L0 533L0 467L0 467L0 400L0 400L0 333L0 333L0 267L0 267L0 200L0 200L0 133L0 133L0 67L0 67L0 0L0 0Z" fill="#9900ff"></path><path d="M419 0L360 0L360 67L558 67L558 133L242 133L242 200L360 200L360 267L448 267L448 333L253 333L253 400L409 400L409 467L240 467L240 533L460 533L460 600L0 600L0 533L0 533L0 467L0 467L0 400L0 400L0 333L0 333L0 267L0 267L0 200L0 200L0 133L0 133L0 67L0 67L0 0L0 0Z" fill="#7700c6"></path><path d="M167 0L146 0L146 67L311 67L311 133L221 133L221 200L100 200L100 267L195 267L195 333L135 333L135 400L202 400L202 467L300 467L300 533L130 533L130 600L0 600L0 533L0 533L0 467L0 467L0 400L0 400L0 333L0 333L0 267L0 267L0 200L0 200L0 133L0 133L0 67L0 67L0 0L0 0Z" fill="#560090"></path></svg>